<mxfile host="app.diagrams.net" agent="Mozilla/5.0 (Windows NT 10.0; Win64; x64) AppleWebKit/537.36 (KHTML, like Gecko) Chrome/133.0.0.0 Safari/537.36" version="26.0.16">
  <diagram id="C5RBs43oDa-KdzZeNtuy" name="Page-1">
    <mxGraphModel grid="0" page="1" gridSize="10" guides="0" tooltips="1" connect="1" arrows="1" fold="1" pageScale="1" pageWidth="2339" pageHeight="3300" math="0" shadow="0">
      <root>
        <mxCell id="WIyWlLk6GJQsqaUBKTNV-0" />
        <mxCell id="WIyWlLk6GJQsqaUBKTNV-1" parent="WIyWlLk6GJQsqaUBKTNV-0" />
        <mxCell id="zkfFHV4jXpPFQw0GAbJ--13" value="Grupo" style="swimlane;fontStyle=0;align=center;verticalAlign=top;childLayout=stackLayout;horizontal=1;startSize=26;horizontalStack=0;resizeParent=1;resizeLast=0;collapsible=1;marginBottom=0;rounded=0;shadow=0;strokeWidth=1;" vertex="1" parent="WIyWlLk6GJQsqaUBKTNV-1">
          <mxGeometry x="-390" y="330" width="540" height="188" as="geometry">
            <mxRectangle x="542.88" y="280.58" width="160" height="90" as="alternateBounds" />
          </mxGeometry>
        </mxCell>
        <mxCell id="zkfFHV4jXpPFQw0GAbJ--14" value="-numIntegrantes:int&#xa;-ventaStands:boolean" style="text;align=left;verticalAlign=top;spacingLeft=4;spacingRight=4;overflow=hidden;rotatable=0;points=[[0,0.5],[1,0.5]];portConstraint=eastwest;" vertex="1" parent="zkfFHV4jXpPFQw0GAbJ--13">
          <mxGeometry y="26" width="540" height="44" as="geometry" />
        </mxCell>
        <mxCell id="zkfFHV4jXpPFQw0GAbJ--15" value="" style="line;html=1;strokeWidth=1;align=left;verticalAlign=middle;spacingTop=-1;spacingLeft=3;spacingRight=3;rotatable=0;labelPosition=right;points=[];portConstraint=eastwest;" vertex="1" parent="zkfFHV4jXpPFQw0GAbJ--13">
          <mxGeometry y="70" width="540" height="8" as="geometry" />
        </mxCell>
        <mxCell id="oUKuFgAebbwAvvV8fS3F-0" value="&lt;div&gt;+Grupo(nombre: String, genero: String, headliner: boolean, precioEntrada: int,&lt;/div&gt;&lt;div&gt;duracionConcierto: int, aforo:int,&amp;nbsp;&lt;span style=&quot;background-color: transparent; color: light-dark(rgb(0, 0, 0), rgb(255, 255, 255));&quot;&gt;confirmado: boolean&lt;/span&gt;&lt;span style=&quot;background-color: transparent; color: light-dark(rgb(0, 0, 0), rgb(255, 255, 255));&quot;&gt;, numIntegrantes: int, ventaStands: boolean)&lt;/span&gt;&lt;/div&gt;+setNumIntegrantes(int)&lt;div&gt;+setVentaStands(boolean)&lt;/div&gt;&lt;div&gt;+getNumIntegrantes(): int&lt;/div&gt;&lt;div&gt;+getVentaStands(): boolean&lt;/div&gt;&lt;div&gt;+ toString(): String&lt;/div&gt;" style="text;html=1;align=left;verticalAlign=middle;resizable=0;points=[];autosize=1;strokeColor=none;fillColor=none;" vertex="1" parent="zkfFHV4jXpPFQw0GAbJ--13">
          <mxGeometry y="78" width="540" height="110" as="geometry" />
        </mxCell>
        <mxCell id="R1PjHKcXfiWisiJE-5-r-1" style="edgeStyle=orthogonalEdgeStyle;rounded=0;orthogonalLoop=1;jettySize=auto;html=1;exitX=0.5;exitY=0;exitDx=0;exitDy=0;entryX=1;entryY=0.5;entryDx=0;entryDy=0;endArrow=none;startFill=0;" edge="1" parent="WIyWlLk6GJQsqaUBKTNV-1" source="oUKuFgAebbwAvvV8fS3F-1" target="oUKuFgAebbwAvvV8fS3F-8">
          <mxGeometry relative="1" as="geometry" />
        </mxCell>
        <mxCell id="oUKuFgAebbwAvvV8fS3F-1" value="Asistente" style="swimlane;fontStyle=0;align=center;verticalAlign=top;childLayout=stackLayout;horizontal=1;startSize=26;horizontalStack=0;resizeParent=1;resizeLast=0;collapsible=1;marginBottom=0;rounded=0;shadow=0;strokeWidth=1;" vertex="1" parent="WIyWlLk6GJQsqaUBKTNV-1">
          <mxGeometry x="993" y="-19" width="480" height="264" as="geometry">
            <mxRectangle x="340" y="380" width="170" height="26" as="alternateBounds" />
          </mxGeometry>
        </mxCell>
        <mxCell id="oUKuFgAebbwAvvV8fS3F-2" value="# nombre: String&#xa;# DNI: String&#xa;# tarjetaCredito: int&#xa;# haAsistidoAntes: boolean&#xa;# entradas: Entrada[]" style="text;align=left;verticalAlign=top;spacingLeft=4;spacingRight=4;overflow=hidden;rotatable=0;points=[[0,0.5],[1,0.5]];portConstraint=eastwest;" vertex="1" parent="oUKuFgAebbwAvvV8fS3F-1">
          <mxGeometry y="26" width="480" height="94" as="geometry" />
        </mxCell>
        <mxCell id="oUKuFgAebbwAvvV8fS3F-3" value="" style="line;html=1;strokeWidth=1;align=left;verticalAlign=middle;spacingTop=-1;spacingLeft=3;spacingRight=3;rotatable=0;labelPosition=right;points=[];portConstraint=eastwest;" vertex="1" parent="oUKuFgAebbwAvvV8fS3F-1">
          <mxGeometry y="120" width="480" height="14" as="geometry" />
        </mxCell>
        <mxCell id="oUKuFgAebbwAvvV8fS3F-4" value="&lt;div&gt;&amp;nbsp;+ Asistente(nombre: String, DNI: String, tarjetaCredito: int, haAsistidoAntes: boolean)&lt;/div&gt;&amp;nbsp;+ getNombre(): String&lt;div&gt;&amp;nbsp;+ getDNI(): String&lt;/div&gt;&lt;div&gt;&amp;nbsp;+ getTarjetaCredito(): int&lt;/div&gt;&lt;div&gt;&amp;nbsp;+ haAsistidoAntes(): booelan&lt;/div&gt;&lt;div&gt;&amp;nbsp;+ getEntradas(): Entrada[]&lt;/div&gt;&lt;div&gt;&amp;nbsp;+ comprarEntrada(idEntrada: int): void&lt;/div&gt;&lt;div&gt;&amp;nbsp;+ calcularPrecioEntrada(entrada: Entrada): double&lt;/div&gt;" style="text;html=1;align=left;verticalAlign=middle;resizable=0;points=[];autosize=1;strokeColor=none;fillColor=none;rotation=0;" vertex="1" parent="oUKuFgAebbwAvvV8fS3F-1">
          <mxGeometry y="134" width="480" height="130" as="geometry" />
        </mxCell>
        <mxCell id="QdqX9p0yZAZevgLs80or-0" style="edgeStyle=orthogonalEdgeStyle;rounded=0;orthogonalLoop=1;jettySize=auto;html=1;exitX=0.5;exitY=0;exitDx=0;exitDy=0;entryX=0.5;entryY=1;entryDx=0;entryDy=0;endArrow=block;endFill=0;endSize=10;" edge="1" parent="WIyWlLk6GJQsqaUBKTNV-1" source="r697xL5jfFrT1t0gax1B-0" target="oUKuFgAebbwAvvV8fS3F-1">
          <mxGeometry relative="1" as="geometry" />
        </mxCell>
        <mxCell id="r697xL5jfFrT1t0gax1B-0" value="Asistente VIP" style="swimlane;fontStyle=0;align=center;verticalAlign=top;childLayout=stackLayout;horizontal=1;startSize=26;horizontalStack=0;resizeParent=1;resizeLast=0;collapsible=1;marginBottom=0;rounded=0;shadow=0;strokeWidth=1;" vertex="1" parent="WIyWlLk6GJQsqaUBKTNV-1">
          <mxGeometry x="1045" y="300" width="350" height="120" as="geometry">
            <mxRectangle x="340" y="380" width="170" height="26" as="alternateBounds" />
          </mxGeometry>
        </mxCell>
        <mxCell id="r697xL5jfFrT1t0gax1B-1" value="- numTarjetaVIP: int" style="text;align=left;verticalAlign=top;spacingLeft=4;spacingRight=4;overflow=hidden;rotatable=0;points=[[0,0.5],[1,0.5]];portConstraint=eastwest;" vertex="1" parent="r697xL5jfFrT1t0gax1B-0">
          <mxGeometry y="26" width="350" height="26" as="geometry" />
        </mxCell>
        <mxCell id="r697xL5jfFrT1t0gax1B-2" value="" style="line;html=1;strokeWidth=1;align=left;verticalAlign=middle;spacingTop=-1;spacingLeft=3;spacingRight=3;rotatable=0;labelPosition=right;points=[];portConstraint=eastwest;" vertex="1" parent="r697xL5jfFrT1t0gax1B-0">
          <mxGeometry y="52" width="350" height="8" as="geometry" />
        </mxCell>
        <mxCell id="r697xL5jfFrT1t0gax1B-3" value="&lt;div&gt;+AsistenteVIP(nombre: String, DNI: String, tarjetaCredito: int,&lt;/div&gt;&lt;div&gt;haAsistidoAntes: boolean, numTarjetaVIP: int)&lt;/div&gt;+getNumTarjetaVIP(): int" style="text;html=1;align=left;verticalAlign=middle;resizable=0;points=[];autosize=1;strokeColor=none;fillColor=none;" vertex="1" parent="r697xL5jfFrT1t0gax1B-0">
          <mxGeometry y="60" width="350" height="60" as="geometry" />
        </mxCell>
        <mxCell id="r697xL5jfFrT1t0gax1B-6" value="Solista" style="swimlane;fontStyle=0;align=center;verticalAlign=top;childLayout=stackLayout;horizontal=1;startSize=26;horizontalStack=0;resizeParent=1;resizeLast=0;collapsible=1;marginBottom=0;rounded=0;shadow=0;strokeWidth=1;" vertex="1" parent="WIyWlLk6GJQsqaUBKTNV-1">
          <mxGeometry x="240" y="330" width="510" height="188" as="geometry">
            <mxRectangle x="542.88" y="280.58" width="160" height="90" as="alternateBounds" />
          </mxGeometry>
        </mxCell>
        <mxCell id="r697xL5jfFrT1t0gax1B-7" value="-camerino:boolean&#xa;-tfnoManager:int" style="text;align=left;verticalAlign=top;spacingLeft=4;spacingRight=4;overflow=hidden;rotatable=0;points=[[0,0.5],[1,0.5]];portConstraint=eastwest;" vertex="1" parent="r697xL5jfFrT1t0gax1B-6">
          <mxGeometry y="26" width="510" height="44" as="geometry" />
        </mxCell>
        <mxCell id="r697xL5jfFrT1t0gax1B-8" value="" style="line;html=1;strokeWidth=1;align=left;verticalAlign=middle;spacingTop=-1;spacingLeft=3;spacingRight=3;rotatable=0;labelPosition=right;points=[];portConstraint=eastwest;" vertex="1" parent="r697xL5jfFrT1t0gax1B-6">
          <mxGeometry y="70" width="510" height="8" as="geometry" />
        </mxCell>
        <mxCell id="r697xL5jfFrT1t0gax1B-9" value="&lt;div&gt;+Solista&lt;span style=&quot;background-color: transparent; color: light-dark(rgb(0, 0, 0), rgb(255, 255, 255));&quot;&gt;(nombre: String, genero: String, headliner: boolean, precioEntrada: int,&lt;/span&gt;&lt;/div&gt;&lt;div&gt;duracionConcierto: int, aforo:int,&amp;nbsp;&lt;span style=&quot;background-color: transparent; color: light-dark(rgb(0, 0, 0), rgb(255, 255, 255));&quot;&gt;confirmado: boolean&lt;/span&gt;&lt;span style=&quot;background-color: transparent; color: light-dark(rgb(0, 0, 0), rgb(255, 255, 255));&quot;&gt;, camerino: boolean, tfnoManager: int)&lt;/span&gt;&lt;/div&gt;+setCamerino(boolean)&lt;div&gt;+setNumPromotor(int)&lt;/div&gt;&lt;div&gt;+getCamerino(): boolean&lt;/div&gt;&lt;div&gt;+getNumPromotor(): int&lt;/div&gt;&lt;div&gt;+ toString(): String&lt;/div&gt;" style="text;html=1;align=left;verticalAlign=middle;resizable=0;points=[];autosize=1;strokeColor=none;fillColor=none;" vertex="1" parent="r697xL5jfFrT1t0gax1B-6">
          <mxGeometry y="78" width="510" height="110" as="geometry" />
        </mxCell>
        <mxCell id="oUKuFgAebbwAvvV8fS3F-8" value="Festival&#xa;" style="swimlane;fontStyle=0;align=center;verticalAlign=top;childLayout=stackLayout;horizontal=1;startSize=26;horizontalStack=0;resizeParent=1;resizeLast=0;collapsible=1;marginBottom=0;rounded=0;shadow=0;strokeWidth=1;" vertex="1" parent="WIyWlLk6GJQsqaUBKTNV-1">
          <mxGeometry x="560" y="-250" width="455" height="220" as="geometry">
            <mxRectangle x="340" y="380" width="170" height="26" as="alternateBounds" />
          </mxGeometry>
        </mxCell>
        <mxCell id="oUKuFgAebbwAvvV8fS3F-11" value="&lt;div&gt;&lt;span style=&quot;background-color: transparent; color: light-dark(rgb(0, 0, 0), rgb(255, 255, 255));&quot;&gt;&amp;nbsp;- nombre: String&lt;/span&gt;&lt;/div&gt;- ciudad: String&lt;br style=&quot;padding: 0px; margin: 0px;&quot;&gt;- artistas: Artista[]&lt;div&gt;- asistentes: Asistente[]&lt;/div&gt;" style="text;html=1;align=left;verticalAlign=middle;resizable=0;points=[];autosize=1;strokeColor=none;fillColor=none;rotation=0;" vertex="1" parent="oUKuFgAebbwAvvV8fS3F-8">
          <mxGeometry y="26" width="455" height="70" as="geometry" />
        </mxCell>
        <mxCell id="oUKuFgAebbwAvvV8fS3F-10" value="" style="line;html=1;strokeWidth=1;align=left;verticalAlign=middle;spacingTop=-1;spacingLeft=3;spacingRight=3;rotatable=0;labelPosition=right;points=[];portConstraint=eastwest;" vertex="1" parent="oUKuFgAebbwAvvV8fS3F-8">
          <mxGeometry y="96" width="455" height="14" as="geometry" />
        </mxCell>
        <mxCell id="oUKuFgAebbwAvvV8fS3F-9" value=" + Festival(nombre: String, ciudad: String, artistas: Artista[], asistentes: Asistente[])&#xa;+ getNombre(): String&#xa; + getCiudad(): String &#xa;+ getArtistas(): Artista[]&#xa;+ precioSeguridad(empresaSeguridad: Seguridad): int&#xa;+ getTotalAsistentes(): int" style="text;align=left;verticalAlign=top;spacingLeft=4;spacingRight=4;overflow=hidden;rotatable=0;points=[[0,0.5],[1,0.5]];portConstraint=eastwest;" vertex="1" parent="oUKuFgAebbwAvvV8fS3F-8">
          <mxGeometry y="110" width="455" height="110" as="geometry" />
        </mxCell>
        <mxCell id="r697xL5jfFrT1t0gax1B-15" value="Artista" style="swimlane;fontStyle=0;align=center;verticalAlign=top;childLayout=stackLayout;horizontal=1;startSize=26;horizontalStack=0;resizeParent=1;resizeLast=0;collapsible=1;marginBottom=0;rounded=0;shadow=0;strokeWidth=1;" vertex="1" parent="WIyWlLk6GJQsqaUBKTNV-1">
          <mxGeometry x="90" y="-30.58" width="350" height="260" as="geometry">
            <mxRectangle x="542.88" y="280.58" width="160" height="90" as="alternateBounds" />
          </mxGeometry>
        </mxCell>
        <mxCell id="r697xL5jfFrT1t0gax1B-16" value="#nombre: String&#xa;#genero: String&#xa;#headliner:boolean&#xa;#precioEntrada: int&#xa;#duracionConcierto: int&#xa;#aforo: int&#xa;#confirmado: boolean" style="text;align=left;verticalAlign=top;spacingLeft=4;spacingRight=4;overflow=hidden;rotatable=0;points=[[0,0.5],[1,0.5]];portConstraint=eastwest;" vertex="1" parent="r697xL5jfFrT1t0gax1B-15">
          <mxGeometry y="26" width="350" height="104" as="geometry" />
        </mxCell>
        <mxCell id="r697xL5jfFrT1t0gax1B-17" value="" style="line;html=1;strokeWidth=1;align=left;verticalAlign=middle;spacingTop=-1;spacingLeft=3;spacingRight=3;rotatable=0;labelPosition=right;points=[];portConstraint=eastwest;" vertex="1" parent="r697xL5jfFrT1t0gax1B-15">
          <mxGeometry y="130" width="350" height="20" as="geometry" />
        </mxCell>
        <mxCell id="r697xL5jfFrT1t0gax1B-18" value="&amp;nbsp;+ Artista(nombre: String, genero: String,&lt;div&gt;headliner: boolean, precioEntrada: int,&amp;nbsp;&lt;span style=&quot;background-color: transparent; color: light-dark(rgb(0, 0, 0), rgb(255, 255, 255));&quot;&gt;duracionConcierto: int,&lt;/span&gt;&lt;/div&gt;&lt;div&gt;&lt;span style=&quot;background-color: transparent; color: light-dark(rgb(0, 0, 0), rgb(255, 255, 255));&quot;&gt;aforo: int, confirmado: boolean)&lt;/span&gt;&lt;/div&gt;&lt;div&gt;&lt;div&gt;&amp;nbsp;+ getNombre(): String&lt;div&gt;&amp;nbsp;+ getGenero(): String&lt;/div&gt;&lt;/div&gt;&lt;/div&gt;&lt;div&gt;&amp;nbsp;+ getPrecio(): int&lt;/div&gt;&lt;div&gt;+ toString: String&lt;/div&gt;" style="text;html=1;align=left;verticalAlign=middle;resizable=0;points=[];autosize=1;strokeColor=none;fillColor=none;" vertex="1" parent="r697xL5jfFrT1t0gax1B-15">
          <mxGeometry y="150" width="350" height="110" as="geometry" />
        </mxCell>
        <mxCell id="MAY76NWiQkMgGXF5CwFJ-0" value="Entrada" style="swimlane;fontStyle=0;align=center;verticalAlign=top;childLayout=stackLayout;horizontal=1;startSize=26;horizontalStack=0;resizeParent=1;resizeLast=0;collapsible=1;marginBottom=0;rounded=0;shadow=0;strokeWidth=1;" vertex="1" parent="WIyWlLk6GJQsqaUBKTNV-1">
          <mxGeometry x="570" y="-10.000000000000002" width="340" height="164" as="geometry">
            <mxRectangle x="340" y="380" width="170" height="26" as="alternateBounds" />
          </mxGeometry>
        </mxCell>
        <mxCell id="MAY76NWiQkMgGXF5CwFJ-1" value="- idEntrada: int&#xa;- artista: Artista" style="text;align=left;verticalAlign=top;spacingLeft=4;spacingRight=4;overflow=hidden;rotatable=0;points=[[0,0.5],[1,0.5]];portConstraint=eastwest;" vertex="1" parent="MAY76NWiQkMgGXF5CwFJ-0">
          <mxGeometry y="26" width="340" height="54" as="geometry" />
        </mxCell>
        <mxCell id="MAY76NWiQkMgGXF5CwFJ-2" value="" style="line;html=1;strokeWidth=1;align=left;verticalAlign=middle;spacingTop=-1;spacingLeft=3;spacingRight=3;rotatable=0;labelPosition=right;points=[];portConstraint=eastwest;" vertex="1" parent="MAY76NWiQkMgGXF5CwFJ-0">
          <mxGeometry y="80" width="340" height="14" as="geometry" />
        </mxCell>
        <mxCell id="MAY76NWiQkMgGXF5CwFJ-3" value="&lt;div&gt;+ Entrada(idEntrada: int, precio: double, artista: Artista)&lt;/div&gt;&lt;div&gt;+ getID(): int&lt;/div&gt;&lt;div&gt;+ getArtista(): Artista&lt;/div&gt;" style="text;html=1;align=left;verticalAlign=middle;resizable=0;points=[];autosize=1;strokeColor=none;fillColor=none;rotation=0;" vertex="1" parent="MAY76NWiQkMgGXF5CwFJ-0">
          <mxGeometry y="94" width="340" height="60" as="geometry" />
        </mxCell>
        <mxCell id="MAY76NWiQkMgGXF5CwFJ-4" value="Seguridad" style="swimlane;fontStyle=0;align=center;verticalAlign=top;childLayout=stackLayout;horizontal=1;startSize=26;horizontalStack=0;resizeParent=1;resizeLast=0;collapsible=1;marginBottom=0;rounded=0;shadow=0;strokeWidth=1;" vertex="1" parent="WIyWlLk6GJQsqaUBKTNV-1">
          <mxGeometry x="50" y="-340" width="340" height="181.42" as="geometry">
            <mxRectangle x="340" y="380" width="170" height="26" as="alternateBounds" />
          </mxGeometry>
        </mxCell>
        <mxCell id="MAY76NWiQkMgGXF5CwFJ-5" value="- nombre: String&#xa;- cobroPorGuarda: double" style="text;align=left;verticalAlign=top;spacingLeft=4;spacingRight=4;overflow=hidden;rotatable=0;points=[[0,0.5],[1,0.5]];portConstraint=eastwest;" vertex="1" parent="MAY76NWiQkMgGXF5CwFJ-4">
          <mxGeometry y="26" width="340" height="64" as="geometry" />
        </mxCell>
        <mxCell id="MAY76NWiQkMgGXF5CwFJ-6" value="" style="line;html=1;strokeWidth=1;align=left;verticalAlign=middle;spacingTop=-1;spacingLeft=3;spacingRight=3;rotatable=0;labelPosition=right;points=[];portConstraint=eastwest;" vertex="1" parent="MAY76NWiQkMgGXF5CwFJ-4">
          <mxGeometry y="90" width="340" height="14" as="geometry" />
        </mxCell>
        <mxCell id="MAY76NWiQkMgGXF5CwFJ-7" value="&lt;div&gt;+ Seguridad(nombre: String, cobroPorGuarda: double)&lt;/div&gt;&lt;div&gt;+ getNombre(): String&lt;/div&gt;&lt;div&gt;+ getCobro(): double&lt;/div&gt;" style="text;html=1;align=left;verticalAlign=middle;resizable=0;points=[];autosize=1;strokeColor=none;fillColor=none;rotation=0;" vertex="1" parent="MAY76NWiQkMgGXF5CwFJ-4">
          <mxGeometry y="104" width="340" height="60" as="geometry" />
        </mxCell>
        <mxCell id="MAY76NWiQkMgGXF5CwFJ-9" style="edgeStyle=orthogonalEdgeStyle;rounded=1;orthogonalLoop=1;jettySize=auto;html=1;exitX=0.5;exitY=0;exitDx=0;exitDy=0;entryX=0.01;entryY=0.64;entryDx=0;entryDy=0;entryPerimeter=0;curved=0;endArrow=block;endFill=0;endSize=12;" edge="1" parent="WIyWlLk6GJQsqaUBKTNV-1" source="zkfFHV4jXpPFQw0GAbJ--13" target="r697xL5jfFrT1t0gax1B-17">
          <mxGeometry relative="1" as="geometry" />
        </mxCell>
        <mxCell id="3aHNW4H57N21DdnNx_dY-0" style="edgeStyle=orthogonalEdgeStyle;rounded=0;orthogonalLoop=1;jettySize=auto;html=1;exitX=0.5;exitY=0;exitDx=0;exitDy=0;entryX=0.997;entryY=0.869;entryDx=0;entryDy=0;entryPerimeter=0;endArrow=block;endFill=0;endSize=12;" edge="1" parent="WIyWlLk6GJQsqaUBKTNV-1" source="r697xL5jfFrT1t0gax1B-6" target="r697xL5jfFrT1t0gax1B-16">
          <mxGeometry relative="1" as="geometry" />
        </mxCell>
        <mxCell id="QdqX9p0yZAZevgLs80or-2" style="edgeStyle=orthogonalEdgeStyle;rounded=0;orthogonalLoop=1;jettySize=auto;html=1;exitX=0;exitY=0.5;exitDx=0;exitDy=0;entryX=0.989;entryY=0.756;entryDx=0;entryDy=0;entryPerimeter=0;endArrow=none;startFill=0;" edge="1" parent="WIyWlLk6GJQsqaUBKTNV-1" source="MAY76NWiQkMgGXF5CwFJ-0" target="r697xL5jfFrT1t0gax1B-16">
          <mxGeometry relative="1" as="geometry" />
        </mxCell>
        <mxCell id="QdqX9p0yZAZevgLs80or-3" style="edgeStyle=orthogonalEdgeStyle;rounded=0;orthogonalLoop=1;jettySize=auto;html=1;entryX=0.002;entryY=0.851;entryDx=0;entryDy=0;entryPerimeter=0;endArrow=none;startFill=0;" edge="1" parent="WIyWlLk6GJQsqaUBKTNV-1" source="MAY76NWiQkMgGXF5CwFJ-2" target="oUKuFgAebbwAvvV8fS3F-2">
          <mxGeometry relative="1" as="geometry" />
        </mxCell>
        <mxCell id="R1PjHKcXfiWisiJE-5-r-2" style="edgeStyle=orthogonalEdgeStyle;rounded=0;orthogonalLoop=1;jettySize=auto;html=1;exitX=0.5;exitY=0;exitDx=0;exitDy=0;entryX=0.009;entryY=0.041;entryDx=0;entryDy=0;entryPerimeter=0;endArrow=none;startFill=0;" edge="1" parent="WIyWlLk6GJQsqaUBKTNV-1" source="r697xL5jfFrT1t0gax1B-15" target="oUKuFgAebbwAvvV8fS3F-9">
          <mxGeometry relative="1" as="geometry" />
        </mxCell>
        <mxCell id="R1PjHKcXfiWisiJE-5-r-3" value="1" style="text;html=1;align=center;verticalAlign=middle;whiteSpace=wrap;rounded=0;strokeWidth=3;fontSize=20;" vertex="1" parent="WIyWlLk6GJQsqaUBKTNV-1">
          <mxGeometry x="1003" y="-175.99999999999997" width="60" height="30" as="geometry" />
        </mxCell>
        <mxCell id="zdNBjTjvL-_Z4yl5mN0k-5" value="&lt;font style=&quot;font-size: 20px;&quot;&gt;1...*&lt;/font&gt;" style="text;html=1;align=center;verticalAlign=middle;whiteSpace=wrap;rounded=0;" vertex="1" parent="WIyWlLk6GJQsqaUBKTNV-1">
          <mxGeometry x="200" y="-60" width="60" height="30" as="geometry" />
        </mxCell>
        <mxCell id="R1PjHKcXfiWisiJE-5-r-7" value="1..*" style="text;html=1;align=center;verticalAlign=middle;whiteSpace=wrap;rounded=0;strokeWidth=3;fontSize=20;" vertex="1" parent="WIyWlLk6GJQsqaUBKTNV-1">
          <mxGeometry x="1220" y="-60.579999999999984" width="60" height="30" as="geometry" />
        </mxCell>
        <mxCell id="R1PjHKcXfiWisiJE-5-r-8" value="1" style="text;html=1;align=center;verticalAlign=middle;whiteSpace=wrap;rounded=0;strokeWidth=3;fontSize=20;" vertex="1" parent="WIyWlLk6GJQsqaUBKTNV-1">
          <mxGeometry x="520" y="-158.57999999999998" width="60" height="50" as="geometry" />
        </mxCell>
        <mxCell id="R1PjHKcXfiWisiJE-5-r-9" value="1" style="text;html=1;align=center;verticalAlign=middle;whiteSpace=wrap;rounded=0;strokeWidth=3;fontSize=20;" vertex="1" parent="WIyWlLk6GJQsqaUBKTNV-1">
          <mxGeometry x="930" y="40.00000000000003" width="60" height="30" as="geometry" />
        </mxCell>
        <mxCell id="R1PjHKcXfiWisiJE-5-r-10" value="0..7" style="text;html=1;align=center;verticalAlign=middle;whiteSpace=wrap;rounded=0;strokeWidth=3;fontSize=20;" vertex="1" parent="WIyWlLk6GJQsqaUBKTNV-1">
          <mxGeometry x="900" y="79.42000000000002" width="60" height="30" as="geometry" />
        </mxCell>
        <mxCell id="R1PjHKcXfiWisiJE-5-r-11" value="1" style="text;html=1;align=center;verticalAlign=middle;whiteSpace=wrap;rounded=0;strokeWidth=3;fontSize=20;" vertex="1" parent="WIyWlLk6GJQsqaUBKTNV-1">
          <mxGeometry x="430" y="40.00000000000003" width="60" height="30" as="geometry" />
        </mxCell>
        <mxCell id="R1PjHKcXfiWisiJE-5-r-12" value="1" style="text;html=1;align=center;verticalAlign=middle;whiteSpace=wrap;rounded=0;strokeWidth=3;fontSize=20;" vertex="1" parent="WIyWlLk6GJQsqaUBKTNV-1">
          <mxGeometry x="520" y="70.00000000000003" width="60" height="30" as="geometry" />
        </mxCell>
        <mxCell id="WHypBUjckIvmTHJCCfg1-4" value="&lt;div&gt;&lt;br&gt;&lt;/div&gt;&lt;div&gt;&lt;br&gt;&lt;/div&gt;" style="html=1;verticalAlign=bottom;endArrow=open;dashed=1;endSize=8;curved=0;rounded=0;exitX=0.003;exitY=0.68;exitDx=0;exitDy=0;exitPerimeter=0;entryX=1.012;entryY=0.825;entryDx=0;entryDy=0;entryPerimeter=0;" edge="1" parent="WIyWlLk6GJQsqaUBKTNV-1" source="oUKuFgAebbwAvvV8fS3F-11" target="MAY76NWiQkMgGXF5CwFJ-5">
          <mxGeometry x="0.0148" y="-37" relative="1" as="geometry">
            <mxPoint x="540" y="-229" as="sourcePoint" />
            <mxPoint x="460" y="-229" as="targetPoint" />
            <mxPoint as="offset" />
          </mxGeometry>
        </mxCell>
      </root>
    </mxGraphModel>
  </diagram>
</mxfile>
